<mxfile host="app.diagrams.net" modified="2023-10-04T03:36:59.580Z" agent="Mozilla/5.0 (X11; Linux x86_64; rv:109.0) Gecko/20100101 Firefox/117.0" etag="Kv9yYsydBEJPF2E48lRY" version="22.0.1" type="google">
  <diagram id="R2lEEEUBdFMjLlhIrx00" name="Page-1">
    <mxGraphModel grid="1" page="1" gridSize="10" guides="1" tooltips="1" connect="1" arrows="1" fold="1" pageScale="1" pageWidth="850" pageHeight="1100" math="0" shadow="0" extFonts="Permanent Marker^https://fonts.googleapis.com/css?family=Permanent+Marker">
      <root>
        <mxCell id="0" />
        <mxCell id="1" parent="0" />
        <mxCell id="2v5rbHpj_oHek1u_Qf7X-40" value="" style="edgeStyle=none;orthogonalLoop=1;jettySize=auto;html=1;rounded=0;exitX=0.15;exitY=0.9;exitDx=0;exitDy=0;exitPerimeter=0;entryX=1.1;entryY=0.875;entryDx=0;entryDy=0;entryPerimeter=0;" edge="1" parent="1" source="2v5rbHpj_oHek1u_Qf7X-35" target="cwFyzIeWrkFDfeEDFG0j-2">
          <mxGeometry width="100" relative="1" as="geometry">
            <mxPoint x="1340" y="910" as="sourcePoint" />
            <mxPoint x="840" y="900" as="targetPoint" />
            <Array as="points" />
          </mxGeometry>
        </mxCell>
        <mxCell id="2v5rbHpj_oHek1u_Qf7X-8" value="" style="endArrow=classic;html=1;rounded=0;entryX=0;entryY=0.25;entryDx=0;entryDy=0;exitX=1;exitY=0.897;exitDx=0;exitDy=0;exitPerimeter=0;" edge="1" parent="1" source="P4hTgr7oFE-vMmbrQz0E-50" target="2v5rbHpj_oHek1u_Qf7X-6">
          <mxGeometry width="50" height="50" relative="1" as="geometry">
            <mxPoint x="400" y="286.9385" as="sourcePoint" />
            <mxPoint x="1182" y="284.5" as="targetPoint" />
          </mxGeometry>
        </mxCell>
        <mxCell id="P4hTgr7oFE-vMmbrQz0E-67" value="" style="endArrow=none;dashed=1;html=1;rounded=0;" edge="1" parent="1" target="P4hTgr7oFE-vMmbrQz0E-63">
          <mxGeometry width="50" height="50" relative="1" as="geometry">
            <mxPoint x="910" y="1240" as="sourcePoint" />
            <mxPoint x="909.5" y="54.5" as="targetPoint" />
          </mxGeometry>
        </mxCell>
        <mxCell id="P4hTgr7oFE-vMmbrQz0E-53" value="" style="endArrow=classic;html=1;rounded=0;entryX=1.15;entryY=0.957;entryDx=0;entryDy=0;entryPerimeter=0;exitX=0.05;exitY=1;exitDx=0;exitDy=0;exitPerimeter=0;" edge="1" parent="1" source="P4hTgr7oFE-vMmbrQz0E-50" target="P4hTgr7oFE-vMmbrQz0E-39">
          <mxGeometry width="50" height="50" relative="1" as="geometry">
            <mxPoint x="421" y="307.93449999999984" as="sourcePoint" />
            <mxPoint x="280" y="307" as="targetPoint" />
          </mxGeometry>
        </mxCell>
        <mxCell id="cwFyzIeWrkFDfeEDFG0j-12" value="" style="endArrow=none;dashed=1;html=1;rounded=0;" edge="1" parent="1">
          <mxGeometry width="50" height="50" relative="1" as="geometry">
            <mxPoint x="-50" y="1240" as="sourcePoint" />
            <mxPoint x="-50" y="50" as="targetPoint" />
          </mxGeometry>
        </mxCell>
        <mxCell id="cwFyzIeWrkFDfeEDFG0j-3" value="" style="endArrow=none;dashed=1;html=1;rounded=0;" edge="1" parent="1">
          <mxGeometry width="50" height="50" relative="1" as="geometry">
            <mxPoint x="-220" y="1240" as="sourcePoint" />
            <mxPoint x="-220" y="70" as="targetPoint" />
          </mxGeometry>
        </mxCell>
        <mxCell id="cwFyzIeWrkFDfeEDFG0j-5" value="" style="endArrow=classic;html=1;rounded=0;entryX=-0.05;entryY=0.104;entryDx=0;entryDy=0;entryPerimeter=0;" edge="1" parent="1" target="cwFyzIeWrkFDfeEDFG0j-2">
          <mxGeometry width="50" height="50" relative="1" as="geometry">
            <mxPoint x="-220" y="540" as="sourcePoint" />
            <mxPoint x="-110" y="630" as="targetPoint" />
          </mxGeometry>
        </mxCell>
        <mxCell id="cwFyzIeWrkFDfeEDFG0j-9" value="ProyectManager" style="shape=umlActor;verticalLabelPosition=bottom;verticalAlign=top;html=1;outlineConnect=0;" vertex="1" parent="1">
          <mxGeometry x="-230" y="-10" width="30" height="60" as="geometry" />
        </mxCell>
        <mxCell id="cwFyzIeWrkFDfeEDFG0j-15" value="" style="endArrow=none;dashed=1;html=1;rounded=0;" edge="1" parent="1" source="P4hTgr7oFE-vMmbrQz0E-6">
          <mxGeometry width="50" height="50" relative="1" as="geometry">
            <mxPoint x="110" y="822" as="sourcePoint" />
            <mxPoint x="110" y="50" as="targetPoint" />
          </mxGeometry>
        </mxCell>
        <mxCell id="cwFyzIeWrkFDfeEDFG0j-16" value="" style="endArrow=none;dashed=1;html=1;rounded=0;" edge="1" parent="1" source="P4hTgr7oFE-vMmbrQz0E-14">
          <mxGeometry width="50" height="50" relative="1" as="geometry">
            <mxPoint x="430" y="822" as="sourcePoint" />
            <mxPoint x="430" y="50" as="targetPoint" />
          </mxGeometry>
        </mxCell>
        <mxCell id="cwFyzIeWrkFDfeEDFG0j-17" value="" style="endArrow=none;dashed=1;html=1;rounded=0;" edge="1" parent="1">
          <mxGeometry width="50" height="50" relative="1" as="geometry">
            <mxPoint x="590" y="822" as="sourcePoint" />
            <mxPoint x="590" y="50" as="targetPoint" />
          </mxGeometry>
        </mxCell>
        <mxCell id="cwFyzIeWrkFDfeEDFG0j-18" value="" style="endArrow=none;dashed=1;html=1;rounded=0;" edge="1" parent="1" source="P4hTgr7oFE-vMmbrQz0E-46">
          <mxGeometry width="50" height="50" relative="1" as="geometry">
            <mxPoint x="590" y="822" as="sourcePoint" />
            <mxPoint x="590" y="50" as="targetPoint" />
          </mxGeometry>
        </mxCell>
        <mxCell id="cwFyzIeWrkFDfeEDFG0j-19" value="" style="endArrow=none;dashed=1;html=1;rounded=0;" edge="1" parent="1" source="P4hTgr7oFE-vMmbrQz0E-78">
          <mxGeometry width="50" height="50" relative="1" as="geometry">
            <mxPoint x="1070" y="822" as="sourcePoint" />
            <mxPoint x="1070" y="50" as="targetPoint" />
          </mxGeometry>
        </mxCell>
        <mxCell id="P4hTgr7oFE-vMmbrQz0E-1" value="Project" style="rounded=0;whiteSpace=wrap;html=1;" vertex="1" parent="1">
          <mxGeometry x="-110" y="-10" width="120" height="60" as="geometry" />
        </mxCell>
        <mxCell id="P4hTgr7oFE-vMmbrQz0E-2" value="createProject" style="text;html=1;strokeColor=none;fillColor=none;align=center;verticalAlign=middle;whiteSpace=wrap;rounded=0;" vertex="1" parent="1">
          <mxGeometry x="-175" y="520" width="60" height="30" as="geometry" />
        </mxCell>
        <mxCell id="P4hTgr7oFE-vMmbrQz0E-3" value="" style="endArrow=none;dashed=1;html=1;rounded=0;" edge="1" parent="1" target="cwFyzIeWrkFDfeEDFG0j-2">
          <mxGeometry width="50" height="50" relative="1" as="geometry">
            <mxPoint x="-50" y="775.5" as="sourcePoint" />
            <mxPoint x="-50" y="50" as="targetPoint" />
          </mxGeometry>
        </mxCell>
        <mxCell id="P4hTgr7oFE-vMmbrQz0E-4" value="" style="endArrow=classic;html=1;rounded=0;exitX=0.05;exitY=0.938;exitDx=0;exitDy=0;exitPerimeter=0;" edge="1" parent="1" source="cwFyzIeWrkFDfeEDFG0j-2">
          <mxGeometry width="50" height="50" relative="1" as="geometry">
            <mxPoint x="-120" y="690" as="sourcePoint" />
            <mxPoint x="-220" y="930" as="targetPoint" />
          </mxGeometry>
        </mxCell>
        <mxCell id="P4hTgr7oFE-vMmbrQz0E-5" value="Project created" style="text;html=1;strokeColor=none;fillColor=none;align=center;verticalAlign=middle;whiteSpace=wrap;rounded=0;" vertex="1" parent="1">
          <mxGeometry x="-190" y="909" width="90" height="30" as="geometry" />
        </mxCell>
        <mxCell id="P4hTgr7oFE-vMmbrQz0E-7" value="" style="endArrow=none;dashed=1;html=1;rounded=0;" edge="1" parent="1" target="P4hTgr7oFE-vMmbrQz0E-6">
          <mxGeometry width="50" height="50" relative="1" as="geometry">
            <mxPoint x="110" y="1240" as="sourcePoint" />
            <mxPoint x="110" y="50" as="targetPoint" />
          </mxGeometry>
        </mxCell>
        <mxCell id="P4hTgr7oFE-vMmbrQz0E-6" value="" style="rounded=0;whiteSpace=wrap;html=1;" vertex="1" parent="1">
          <mxGeometry x="100" y="525.5" width="20" height="220" as="geometry" />
        </mxCell>
        <mxCell id="P4hTgr7oFE-vMmbrQz0E-9" value="Team" style="rounded=0;whiteSpace=wrap;html=1;" vertex="1" parent="1">
          <mxGeometry x="50" y="-10" width="120" height="60" as="geometry" />
        </mxCell>
        <mxCell id="P4hTgr7oFE-vMmbrQz0E-10" value="" style="endArrow=classic;html=1;rounded=0;exitX=1.05;exitY=0.193;exitDx=0;exitDy=0;exitPerimeter=0;entryX=-0.1;entryY=0.205;entryDx=0;entryDy=0;entryPerimeter=0;" edge="1" parent="1" target="P4hTgr7oFE-vMmbrQz0E-6">
          <mxGeometry width="50" height="50" relative="1" as="geometry">
            <mxPoint x="-39" y="569.54" as="sourcePoint" />
            <mxPoint x="120" y="615.5" as="targetPoint" />
          </mxGeometry>
        </mxCell>
        <mxCell id="P4hTgr7oFE-vMmbrQz0E-11" value="assignTeam" style="text;html=1;strokeColor=none;fillColor=none;align=center;verticalAlign=middle;whiteSpace=wrap;rounded=0;" vertex="1" parent="1">
          <mxGeometry y="545.5" width="60" height="30" as="geometry" />
        </mxCell>
        <mxCell id="P4hTgr7oFE-vMmbrQz0E-12" value="" style="endArrow=classic;html=1;rounded=0;entryX=1.15;entryY=0.571;entryDx=0;entryDy=0;entryPerimeter=0;exitX=-0.15;exitY=0.686;exitDx=0;exitDy=0;exitPerimeter=0;" edge="1" parent="1" source="P4hTgr7oFE-vMmbrQz0E-6">
          <mxGeometry width="50" height="50" relative="1" as="geometry">
            <mxPoint x="70" y="665.5" as="sourcePoint" />
            <mxPoint x="-37" y="675.3800000000001" as="targetPoint" />
          </mxGeometry>
        </mxCell>
        <mxCell id="P4hTgr7oFE-vMmbrQz0E-13" value="Team assigned" style="text;html=1;strokeColor=none;fillColor=none;align=center;verticalAlign=middle;whiteSpace=wrap;rounded=0;" vertex="1" parent="1">
          <mxGeometry x="-15" y="655.5" width="90" height="30" as="geometry" />
        </mxCell>
        <mxCell id="P4hTgr7oFE-vMmbrQz0E-15" value="Socials" style="rounded=0;whiteSpace=wrap;html=1;" vertex="1" parent="1">
          <mxGeometry x="690" y="-10" width="120" height="60" as="geometry" />
        </mxCell>
        <mxCell id="P4hTgr7oFE-vMmbrQz0E-17" value="" style="endArrow=none;dashed=1;html=1;rounded=0;" edge="1" parent="1" source="P4hTgr7oFE-vMmbrQz0E-61">
          <mxGeometry width="50" height="50" relative="1" as="geometry">
            <mxPoint x="749.5" y="820.5" as="sourcePoint" />
            <mxPoint x="749.5" y="49.5" as="targetPoint" />
          </mxGeometry>
        </mxCell>
        <mxCell id="P4hTgr7oFE-vMmbrQz0E-19" value="" style="endArrow=none;dashed=1;html=1;rounded=0;" edge="1" parent="1" target="P4hTgr7oFE-vMmbrQz0E-18">
          <mxGeometry width="50" height="50" relative="1" as="geometry">
            <mxPoint x="750" y="1240" as="sourcePoint" />
            <mxPoint x="749.5" y="54" as="targetPoint" />
          </mxGeometry>
        </mxCell>
        <mxCell id="P4hTgr7oFE-vMmbrQz0E-18" value="" style="rounded=0;whiteSpace=wrap;html=1;" vertex="1" parent="1">
          <mxGeometry x="740" y="325.5" width="20" height="170" as="geometry" />
        </mxCell>
        <mxCell id="P4hTgr7oFE-vMmbrQz0E-21" value="logIn" style="text;html=1;strokeColor=none;fillColor=none;align=center;verticalAlign=middle;whiteSpace=wrap;rounded=0;" vertex="1" parent="1">
          <mxGeometry x="-150" y="325.5" width="60" height="30" as="geometry" />
        </mxCell>
        <mxCell id="P4hTgr7oFE-vMmbrQz0E-23" value="Refresh" style="text;html=1;strokeColor=none;fillColor=none;align=center;verticalAlign=middle;whiteSpace=wrap;rounded=0;" vertex="1" parent="1">
          <mxGeometry x="-130" y="435.5" width="60" height="30" as="geometry" />
        </mxCell>
        <mxCell id="P4hTgr7oFE-vMmbrQz0E-24" value="Social" style="rounded=0;whiteSpace=wrap;html=1;" vertex="1" parent="1">
          <mxGeometry x="850" y="-10" width="120" height="60" as="geometry" />
        </mxCell>
        <mxCell id="P4hTgr7oFE-vMmbrQz0E-25" value="" style="endArrow=none;dashed=1;html=1;rounded=0;entryX=0.5;entryY=1;entryDx=0;entryDy=0;" edge="1" parent="1" source="P4hTgr7oFE-vMmbrQz0E-63" target="P4hTgr7oFE-vMmbrQz0E-24">
          <mxGeometry width="50" height="50" relative="1" as="geometry">
            <mxPoint x="909.5" y="825.5" as="sourcePoint" />
            <mxPoint x="909.5" y="54.5" as="targetPoint" />
          </mxGeometry>
        </mxCell>
        <mxCell id="P4hTgr7oFE-vMmbrQz0E-26" value="" style="rounded=0;whiteSpace=wrap;html=1;" vertex="1" parent="1">
          <mxGeometry x="900" y="331" width="20" height="155.5" as="geometry" />
        </mxCell>
        <mxCell id="P4hTgr7oFE-vMmbrQz0E-27" value="" style="endArrow=classic;html=1;rounded=0;exitX=1.15;exitY=0.215;exitDx=0;exitDy=0;exitPerimeter=0;entryX=-0.1;entryY=0.206;entryDx=0;entryDy=0;entryPerimeter=0;" edge="1" parent="1" source="P4hTgr7oFE-vMmbrQz0E-18" target="P4hTgr7oFE-vMmbrQz0E-26">
          <mxGeometry width="50" height="50" relative="1" as="geometry">
            <mxPoint x="800" y="511" as="sourcePoint" />
            <mxPoint x="890" y="391" as="targetPoint" />
          </mxGeometry>
        </mxCell>
        <mxCell id="P4hTgr7oFE-vMmbrQz0E-28" value="connect" style="text;html=1;strokeColor=none;fillColor=none;align=center;verticalAlign=middle;whiteSpace=wrap;rounded=0;" vertex="1" parent="1">
          <mxGeometry x="800" y="341" width="60" height="30" as="geometry" />
        </mxCell>
        <mxCell id="P4hTgr7oFE-vMmbrQz0E-29" value="User" style="rounded=0;whiteSpace=wrap;html=1;" vertex="1" parent="1">
          <mxGeometry x="370" y="-10" width="120" height="60" as="geometry" />
        </mxCell>
        <mxCell id="P4hTgr7oFE-vMmbrQz0E-30" value="" style="endArrow=none;dashed=1;html=1;rounded=0;" edge="1" parent="1" target="P4hTgr7oFE-vMmbrQz0E-14">
          <mxGeometry width="50" height="50" relative="1" as="geometry">
            <mxPoint x="430" y="1240" as="sourcePoint" />
            <mxPoint x="430" y="50" as="targetPoint" />
          </mxGeometry>
        </mxCell>
        <mxCell id="P4hTgr7oFE-vMmbrQz0E-14" value="" style="rounded=0;whiteSpace=wrap;html=1;" vertex="1" parent="1">
          <mxGeometry x="420" y="540" width="20" height="200.5" as="geometry" />
        </mxCell>
        <mxCell id="P4hTgr7oFE-vMmbrQz0E-31" value="" style="endArrow=classic;html=1;rounded=0;entryX=-0.2;entryY=0.289;entryDx=0;entryDy=0;exitX=1.1;exitY=0.305;exitDx=0;exitDy=0;exitPerimeter=0;entryPerimeter=0;" edge="1" parent="1" source="P4hTgr7oFE-vMmbrQz0E-6" target="P4hTgr7oFE-vMmbrQz0E-14">
          <mxGeometry width="50" height="50" relative="1" as="geometry">
            <mxPoint x="30" y="625.5" as="sourcePoint" />
            <mxPoint x="80" y="575.5" as="targetPoint" />
          </mxGeometry>
        </mxCell>
        <mxCell id="P4hTgr7oFE-vMmbrQz0E-32" value="addUser" style="text;html=1;strokeColor=none;fillColor=none;align=center;verticalAlign=middle;whiteSpace=wrap;rounded=0;" vertex="1" parent="1">
          <mxGeometry x="160" y="565.5" width="60" height="30" as="geometry" />
        </mxCell>
        <mxCell id="P4hTgr7oFE-vMmbrQz0E-33" value="User added" style="text;html=1;strokeColor=none;fillColor=none;align=center;verticalAlign=middle;whiteSpace=wrap;rounded=0;" vertex="1" parent="1">
          <mxGeometry x="155" y="635.5" width="70" height="30" as="geometry" />
        </mxCell>
        <mxCell id="P4hTgr7oFE-vMmbrQz0E-34" value="" style="endArrow=classic;html=1;rounded=0;exitX=-0.05;exitY=0.608;exitDx=0;exitDy=0;exitPerimeter=0;entryX=1.1;entryY=0.6;entryDx=0;entryDy=0;entryPerimeter=0;" edge="1" parent="1" source="P4hTgr7oFE-vMmbrQz0E-14" target="P4hTgr7oFE-vMmbrQz0E-6">
          <mxGeometry width="50" height="50" relative="1" as="geometry">
            <mxPoint x="-40" y="625.5" as="sourcePoint" />
            <mxPoint x="130" y="655.5" as="targetPoint" />
          </mxGeometry>
        </mxCell>
        <mxCell id="P4hTgr7oFE-vMmbrQz0E-35" value="" style="endArrow=none;dashed=1;html=1;rounded=0;" edge="1" parent="1" source="P4hTgr7oFE-vMmbrQz0E-39">
          <mxGeometry width="50" height="50" relative="1" as="geometry">
            <mxPoint x="270" y="820" as="sourcePoint" />
            <mxPoint x="270" y="50" as="targetPoint" />
          </mxGeometry>
        </mxCell>
        <mxCell id="P4hTgr7oFE-vMmbrQz0E-36" value="UserRole" style="rounded=0;whiteSpace=wrap;html=1;" vertex="1" parent="1">
          <mxGeometry x="210" y="-10" width="120" height="60" as="geometry" />
        </mxCell>
        <mxCell id="P4hTgr7oFE-vMmbrQz0E-38" value="" style="endArrow=classic;html=1;rounded=0;entryX=0;entryY=0.122;entryDx=0;entryDy=0;entryPerimeter=0;" edge="1" parent="1" target="P4hTgr7oFE-vMmbrQz0E-39">
          <mxGeometry width="50" height="50" relative="1" as="geometry">
            <mxPoint x="-220" y="112" as="sourcePoint" />
            <mxPoint x="380" y="180" as="targetPoint" />
          </mxGeometry>
        </mxCell>
        <mxCell id="P4hTgr7oFE-vMmbrQz0E-40" value="" style="endArrow=none;dashed=1;html=1;rounded=0;" edge="1" parent="1" target="P4hTgr7oFE-vMmbrQz0E-39">
          <mxGeometry width="50" height="50" relative="1" as="geometry">
            <mxPoint x="270" y="1240" as="sourcePoint" />
            <mxPoint x="270" y="50" as="targetPoint" />
          </mxGeometry>
        </mxCell>
        <mxCell id="P4hTgr7oFE-vMmbrQz0E-39" value="" style="rounded=0;whiteSpace=wrap;html=1;" vertex="1" parent="1">
          <mxGeometry x="260" y="90" width="20" height="230" as="geometry" />
        </mxCell>
        <mxCell id="P4hTgr7oFE-vMmbrQz0E-42" value="createUserRole" style="text;html=1;strokeColor=none;fillColor=none;align=center;verticalAlign=middle;whiteSpace=wrap;rounded=0;" vertex="1" parent="1">
          <mxGeometry x="-170" y="90" width="90" height="30" as="geometry" />
        </mxCell>
        <mxCell id="P4hTgr7oFE-vMmbrQz0E-43" value="" style="endArrow=classic;html=1;rounded=0;exitX=1.1;exitY=0.2;exitDx=0;exitDy=0;exitPerimeter=0;entryX=-0.15;entryY=0.149;entryDx=0;entryDy=0;entryPerimeter=0;" edge="1" parent="1">
          <mxGeometry width="50" height="50" relative="1" as="geometry">
            <mxPoint x="282.5" y="120.03" as="sourcePoint" />
            <mxPoint x="417.5" y="120.0004999999999" as="targetPoint" />
          </mxGeometry>
        </mxCell>
        <mxCell id="P4hTgr7oFE-vMmbrQz0E-44" value="createUser" style="text;html=1;strokeColor=none;fillColor=none;align=center;verticalAlign=middle;whiteSpace=wrap;rounded=0;" vertex="1" parent="1">
          <mxGeometry x="320" y="100" width="60" height="30" as="geometry" />
        </mxCell>
        <mxCell id="P4hTgr7oFE-vMmbrQz0E-45" value="Role" style="rounded=0;whiteSpace=wrap;html=1;" vertex="1" parent="1">
          <mxGeometry x="530" y="-10" width="120" height="60" as="geometry" />
        </mxCell>
        <mxCell id="P4hTgr7oFE-vMmbrQz0E-47" value="" style="endArrow=none;dashed=1;html=1;rounded=0;" edge="1" parent="1" target="P4hTgr7oFE-vMmbrQz0E-46">
          <mxGeometry width="50" height="50" relative="1" as="geometry">
            <mxPoint x="590" y="1240" as="sourcePoint" />
            <mxPoint x="590" y="50" as="targetPoint" />
          </mxGeometry>
        </mxCell>
        <mxCell id="P4hTgr7oFE-vMmbrQz0E-46" value="" style="rounded=0;whiteSpace=wrap;html=1;" vertex="1" parent="1">
          <mxGeometry x="580" y="105.5" width="20" height="94.5" as="geometry" />
        </mxCell>
        <mxCell id="P4hTgr7oFE-vMmbrQz0E-20" value="" style="endArrow=classic;html=1;rounded=0;entryX=-0.15;entryY=0.156;entryDx=0;entryDy=0;entryPerimeter=0;" edge="1" parent="1">
          <mxGeometry width="50" height="50" relative="1" as="geometry">
            <mxPoint x="-577" y="350" as="sourcePoint" />
            <mxPoint x="740" y="352.02" as="targetPoint" />
          </mxGeometry>
        </mxCell>
        <mxCell id="P4hTgr7oFE-vMmbrQz0E-22" value="" style="endArrow=classic;html=1;rounded=0;exitX=0;exitY=0.856;exitDx=0;exitDy=0;exitPerimeter=0;" edge="1" parent="1" source="P4hTgr7oFE-vMmbrQz0E-26">
          <mxGeometry width="50" height="50" relative="1" as="geometry">
            <mxPoint x="26" y="458.55999999999995" as="sourcePoint" />
            <mxPoint x="-220" y="459" as="targetPoint" />
          </mxGeometry>
        </mxCell>
        <mxCell id="P4hTgr7oFE-vMmbrQz0E-50" value="" style="rounded=0;whiteSpace=wrap;html=1;" vertex="1" parent="1">
          <mxGeometry x="420" y="105.5" width="20" height="204.5" as="geometry" />
        </mxCell>
        <mxCell id="P4hTgr7oFE-vMmbrQz0E-51" value="User assigned" style="text;html=1;strokeColor=none;fillColor=none;align=center;verticalAlign=middle;whiteSpace=wrap;rounded=0;" vertex="1" parent="1">
          <mxGeometry x="310" y="290" width="80" height="30" as="geometry" />
        </mxCell>
        <mxCell id="P4hTgr7oFE-vMmbrQz0E-54" value="" style="endArrow=classic;html=1;rounded=0;entryX=-0.15;entryY=0.309;entryDx=0;entryDy=0;entryPerimeter=0;exitX=1.2;exitY=0.2;exitDx=0;exitDy=0;exitPerimeter=0;" edge="1" parent="1" source="P4hTgr7oFE-vMmbrQz0E-39" target="P4hTgr7oFE-vMmbrQz0E-46">
          <mxGeometry width="50" height="50" relative="1" as="geometry">
            <mxPoint x="290" y="144" as="sourcePoint" />
            <mxPoint x="574" y="130" as="targetPoint" />
          </mxGeometry>
        </mxCell>
        <mxCell id="P4hTgr7oFE-vMmbrQz0E-55" value="assignRole" style="text;html=1;strokeColor=none;fillColor=none;align=center;verticalAlign=middle;whiteSpace=wrap;rounded=0;" vertex="1" parent="1">
          <mxGeometry x="479" y="110" width="60" height="30" as="geometry" />
        </mxCell>
        <mxCell id="P4hTgr7oFE-vMmbrQz0E-57" value="" style="endArrow=classic;html=1;rounded=0;entryX=1.15;entryY=0.365;entryDx=0;entryDy=0;entryPerimeter=0;exitX=-0.1;exitY=0.687;exitDx=0;exitDy=0;exitPerimeter=0;" edge="1" parent="1" source="P4hTgr7oFE-vMmbrQz0E-46" target="P4hTgr7oFE-vMmbrQz0E-39">
          <mxGeometry width="50" height="50" relative="1" as="geometry">
            <mxPoint x="560" y="220" as="sourcePoint" />
            <mxPoint x="290" y="219" as="targetPoint" />
          </mxGeometry>
        </mxCell>
        <mxCell id="P4hTgr7oFE-vMmbrQz0E-58" value="Role assigned" style="text;html=1;strokeColor=none;fillColor=none;align=center;verticalAlign=middle;whiteSpace=wrap;rounded=0;" vertex="1" parent="1">
          <mxGeometry x="320" y="150" width="80" height="30" as="geometry" />
        </mxCell>
        <mxCell id="P4hTgr7oFE-vMmbrQz0E-62" value="" style="endArrow=none;dashed=1;html=1;rounded=0;" edge="1" parent="1" source="P4hTgr7oFE-vMmbrQz0E-18" target="P4hTgr7oFE-vMmbrQz0E-61">
          <mxGeometry width="50" height="50" relative="1" as="geometry">
            <mxPoint x="750" y="326" as="sourcePoint" />
            <mxPoint x="749.5" y="49.5" as="targetPoint" />
          </mxGeometry>
        </mxCell>
        <mxCell id="P4hTgr7oFE-vMmbrQz0E-61" value="" style="rounded=0;whiteSpace=wrap;html=1;" vertex="1" parent="1">
          <mxGeometry x="740" y="210" width="20" height="30" as="geometry" />
        </mxCell>
        <mxCell id="P4hTgr7oFE-vMmbrQz0E-64" value="" style="endArrow=classic;html=1;rounded=0;exitX=1.1;exitY=0.2;exitDx=0;exitDy=0;exitPerimeter=0;entryX=0;entryY=0.25;entryDx=0;entryDy=0;" edge="1" parent="1" target="P4hTgr7oFE-vMmbrQz0E-61">
          <mxGeometry width="50" height="50" relative="1" as="geometry">
            <mxPoint x="440" y="220.03" as="sourcePoint" />
            <mxPoint x="575" y="220.0004999999999" as="targetPoint" />
          </mxGeometry>
        </mxCell>
        <mxCell id="P4hTgr7oFE-vMmbrQz0E-65" value="" style="endArrow=classic;html=1;rounded=0;entryX=1.05;entryY=0.633;entryDx=0;entryDy=0;entryPerimeter=0;exitX=0;exitY=0.838;exitDx=0;exitDy=0;exitPerimeter=0;" edge="1" parent="1" source="P4hTgr7oFE-vMmbrQz0E-61" target="P4hTgr7oFE-vMmbrQz0E-50">
          <mxGeometry width="50" height="50" relative="1" as="geometry">
            <mxPoint x="581" y="241" as="sourcePoint" />
            <mxPoint x="440" y="240" as="targetPoint" />
          </mxGeometry>
        </mxCell>
        <mxCell id="P4hTgr7oFE-vMmbrQz0E-66" value="addSocials" style="text;html=1;strokeColor=none;fillColor=none;align=center;verticalAlign=middle;whiteSpace=wrap;rounded=0;" vertex="1" parent="1">
          <mxGeometry x="490" y="200" width="60" height="30" as="geometry" />
        </mxCell>
        <mxCell id="P4hTgr7oFE-vMmbrQz0E-63" value="" style="rounded=0;whiteSpace=wrap;html=1;" vertex="1" parent="1">
          <mxGeometry x="900" y="210" width="20" height="30" as="geometry" />
        </mxCell>
        <mxCell id="P4hTgr7oFE-vMmbrQz0E-68" value="" style="endArrow=classic;html=1;rounded=0;exitX=1;exitY=0.25;exitDx=0;exitDy=0;entryX=0;entryY=0.25;entryDx=0;entryDy=0;" edge="1" parent="1" source="P4hTgr7oFE-vMmbrQz0E-61" target="P4hTgr7oFE-vMmbrQz0E-63">
          <mxGeometry width="50" height="50" relative="1" as="geometry">
            <mxPoint x="760.5" y="240" as="sourcePoint" />
            <mxPoint x="870" y="242" as="targetPoint" />
          </mxGeometry>
        </mxCell>
        <mxCell id="P4hTgr7oFE-vMmbrQz0E-69" value="" style="endArrow=classic;html=1;rounded=0;entryX=1.15;entryY=0.824;entryDx=0;entryDy=0;entryPerimeter=0;" edge="1" parent="1">
          <mxGeometry width="50" height="50" relative="1" as="geometry">
            <mxPoint x="900" y="240" as="sourcePoint" />
            <mxPoint x="760" y="239" as="targetPoint" />
          </mxGeometry>
        </mxCell>
        <mxCell id="P4hTgr7oFE-vMmbrQz0E-70" value="Socials added" style="text;html=1;strokeColor=none;fillColor=none;align=center;verticalAlign=middle;whiteSpace=wrap;rounded=0;" vertex="1" parent="1">
          <mxGeometry x="480" y="215" width="100" height="30" as="geometry" />
        </mxCell>
        <mxCell id="P4hTgr7oFE-vMmbrQz0E-71" value="addSocial" style="text;html=1;strokeColor=none;fillColor=none;align=center;verticalAlign=middle;whiteSpace=wrap;rounded=0;" vertex="1" parent="1">
          <mxGeometry x="800" y="200" width="60" height="30" as="geometry" />
        </mxCell>
        <mxCell id="P4hTgr7oFE-vMmbrQz0E-72" value="Social added" style="text;html=1;strokeColor=none;fillColor=none;align=center;verticalAlign=middle;whiteSpace=wrap;rounded=0;" vertex="1" parent="1">
          <mxGeometry x="780" y="218" width="100" height="30" as="geometry" />
        </mxCell>
        <mxCell id="P4hTgr7oFE-vMmbrQz0E-77" value="Address" style="rounded=0;whiteSpace=wrap;html=1;" vertex="1" parent="1">
          <mxGeometry x="1010" y="-10" width="120" height="60" as="geometry" />
        </mxCell>
        <mxCell id="P4hTgr7oFE-vMmbrQz0E-79" value="" style="endArrow=none;dashed=1;html=1;rounded=0;" edge="1" parent="1" target="P4hTgr7oFE-vMmbrQz0E-78">
          <mxGeometry width="50" height="50" relative="1" as="geometry">
            <mxPoint x="1070" y="1240" as="sourcePoint" />
            <mxPoint x="1070" y="50" as="targetPoint" />
          </mxGeometry>
        </mxCell>
        <mxCell id="P4hTgr7oFE-vMmbrQz0E-78" value="" style="rounded=0;whiteSpace=wrap;html=1;" vertex="1" parent="1">
          <mxGeometry x="1060" y="248" width="20" height="22" as="geometry" />
        </mxCell>
        <mxCell id="P4hTgr7oFE-vMmbrQz0E-81" value="" style="endArrow=none;dashed=1;html=1;rounded=0;" edge="1" parent="1" source="2v5rbHpj_oHek1u_Qf7X-6">
          <mxGeometry width="50" height="50" relative="1" as="geometry">
            <mxPoint x="1230" y="820" as="sourcePoint" />
            <mxPoint x="1230" y="50" as="targetPoint" />
          </mxGeometry>
        </mxCell>
        <mxCell id="P4hTgr7oFE-vMmbrQz0E-82" value="Skills" style="rounded=0;whiteSpace=wrap;html=1;" vertex="1" parent="1">
          <mxGeometry x="1170" y="-10" width="120" height="60" as="geometry" />
        </mxCell>
        <mxCell id="2v5rbHpj_oHek1u_Qf7X-1" value="" style="endArrow=classic;html=1;rounded=0;entryX=0;entryY=0;entryDx=0;entryDy=0;exitX=0.95;exitY=0.697;exitDx=0;exitDy=0;exitPerimeter=0;" edge="1" parent="1" source="P4hTgr7oFE-vMmbrQz0E-50" target="P4hTgr7oFE-vMmbrQz0E-78">
          <mxGeometry width="50" height="50" relative="1" as="geometry">
            <mxPoint x="520" y="259" as="sourcePoint" />
            <mxPoint x="985" y="301" as="targetPoint" />
          </mxGeometry>
        </mxCell>
        <mxCell id="2v5rbHpj_oHek1u_Qf7X-3" value="addAddress" style="text;html=1;strokeColor=none;fillColor=none;align=center;verticalAlign=middle;whiteSpace=wrap;rounded=0;" vertex="1" parent="1">
          <mxGeometry x="950" y="230" width="60" height="30" as="geometry" />
        </mxCell>
        <mxCell id="2v5rbHpj_oHek1u_Qf7X-4" value="" style="endArrow=classic;html=1;rounded=0;exitX=0;exitY=1;exitDx=0;exitDy=0;entryX=0.95;entryY=0.814;entryDx=0;entryDy=0;entryPerimeter=0;" edge="1" parent="1" source="P4hTgr7oFE-vMmbrQz0E-78" target="P4hTgr7oFE-vMmbrQz0E-50">
          <mxGeometry width="50" height="50" relative="1" as="geometry">
            <mxPoint x="980" y="160" as="sourcePoint" />
            <mxPoint x="800" y="280" as="targetPoint" />
          </mxGeometry>
        </mxCell>
        <mxCell id="2v5rbHpj_oHek1u_Qf7X-5" value="Address added" style="text;html=1;strokeColor=none;fillColor=none;align=center;verticalAlign=middle;whiteSpace=wrap;rounded=0;" vertex="1" parent="1">
          <mxGeometry x="470" y="248" width="100" height="30" as="geometry" />
        </mxCell>
        <mxCell id="2v5rbHpj_oHek1u_Qf7X-7" value="" style="endArrow=none;dashed=1;html=1;rounded=0;" edge="1" parent="1" target="2v5rbHpj_oHek1u_Qf7X-6">
          <mxGeometry width="50" height="50" relative="1" as="geometry">
            <mxPoint x="1230" y="1240" as="sourcePoint" />
            <mxPoint x="1230" y="50" as="targetPoint" />
          </mxGeometry>
        </mxCell>
        <mxCell id="2v5rbHpj_oHek1u_Qf7X-6" value="" style="rounded=0;whiteSpace=wrap;html=1;" vertex="1" parent="1">
          <mxGeometry x="1220" y="280" width="20" height="40" as="geometry" />
        </mxCell>
        <mxCell id="2v5rbHpj_oHek1u_Qf7X-9" value="" style="endArrow=classic;html=1;rounded=0;exitX=0;exitY=0.75;exitDx=0;exitDy=0;entryX=1.1;entryY=0.971;entryDx=0;entryDy=0;entryPerimeter=0;" edge="1" parent="1" target="P4hTgr7oFE-vMmbrQz0E-50">
          <mxGeometry width="50" height="50" relative="1" as="geometry">
            <mxPoint x="1219" y="309.5" as="sourcePoint" />
            <mxPoint x="530" y="330" as="targetPoint" />
          </mxGeometry>
        </mxCell>
        <mxCell id="2v5rbHpj_oHek1u_Qf7X-10" value="addSkills" style="text;html=1;strokeColor=none;fillColor=none;align=center;verticalAlign=middle;whiteSpace=wrap;rounded=0;" vertex="1" parent="1">
          <mxGeometry x="1110" y="270" width="60" height="30" as="geometry" />
        </mxCell>
        <mxCell id="2v5rbHpj_oHek1u_Qf7X-11" value="Skills added" style="text;html=1;strokeColor=none;fillColor=none;align=center;verticalAlign=middle;whiteSpace=wrap;rounded=0;" vertex="1" parent="1">
          <mxGeometry x="460" y="285" width="70" height="30" as="geometry" />
        </mxCell>
        <mxCell id="2v5rbHpj_oHek1u_Qf7X-13" value="SkillsLevel" style="whiteSpace=wrap;html=1;" vertex="1" parent="1">
          <mxGeometry x="1330" y="-10" width="120" height="60" as="geometry" />
        </mxCell>
        <mxCell id="2v5rbHpj_oHek1u_Qf7X-14" value="" style="endArrow=none;dashed=1;html=1;rounded=0;" edge="1" parent="1" source="2v5rbHpj_oHek1u_Qf7X-15">
          <mxGeometry width="50" height="50" relative="1" as="geometry">
            <mxPoint x="1390" y="821" as="sourcePoint" />
            <mxPoint x="1389.5" y="50" as="targetPoint" />
          </mxGeometry>
        </mxCell>
        <mxCell id="2v5rbHpj_oHek1u_Qf7X-16" value="" style="endArrow=none;dashed=1;html=1;rounded=0;" edge="1" parent="1" target="2v5rbHpj_oHek1u_Qf7X-15">
          <mxGeometry width="50" height="50" relative="1" as="geometry">
            <mxPoint x="1400" y="1240" as="sourcePoint" />
            <mxPoint x="1389.5" y="50" as="targetPoint" />
          </mxGeometry>
        </mxCell>
        <mxCell id="2v5rbHpj_oHek1u_Qf7X-15" value="" style="whiteSpace=wrap;html=1;" vertex="1" parent="1">
          <mxGeometry x="1380" y="285" width="20" height="30" as="geometry" />
        </mxCell>
        <mxCell id="2v5rbHpj_oHek1u_Qf7X-17" value="" style="edgeStyle=none;orthogonalLoop=1;jettySize=auto;html=1;rounded=0;entryX=0;entryY=0.25;entryDx=0;entryDy=0;exitX=1;exitY=0.25;exitDx=0;exitDy=0;" edge="1" parent="1" source="2v5rbHpj_oHek1u_Qf7X-6" target="2v5rbHpj_oHek1u_Qf7X-15">
          <mxGeometry width="100" relative="1" as="geometry">
            <mxPoint x="1260" y="290" as="sourcePoint" />
            <mxPoint x="1360" y="290" as="targetPoint" />
            <Array as="points" />
          </mxGeometry>
        </mxCell>
        <mxCell id="2v5rbHpj_oHek1u_Qf7X-18" value="selectLevel" style="text;html=1;align=center;verticalAlign=middle;resizable=0;points=[];autosize=1;strokeColor=none;fillColor=none;" vertex="1" parent="1">
          <mxGeometry x="1270" y="270" width="80" height="30" as="geometry" />
        </mxCell>
        <mxCell id="2v5rbHpj_oHek1u_Qf7X-19" value="Level selected" style="text;html=1;align=center;verticalAlign=middle;resizable=0;points=[];autosize=1;strokeColor=none;fillColor=none;" vertex="1" parent="1">
          <mxGeometry x="1259" y="288" width="100" height="30" as="geometry" />
        </mxCell>
        <mxCell id="2v5rbHpj_oHek1u_Qf7X-20" value="" style="edgeStyle=none;orthogonalLoop=1;jettySize=auto;html=1;rounded=0;entryX=1;entryY=0.75;entryDx=0;entryDy=0;" edge="1" parent="1" target="2v5rbHpj_oHek1u_Qf7X-6">
          <mxGeometry width="100" relative="1" as="geometry">
            <mxPoint x="1380" y="310" as="sourcePoint" />
            <mxPoint x="1310" y="320" as="targetPoint" />
            <Array as="points" />
          </mxGeometry>
        </mxCell>
        <mxCell id="2v5rbHpj_oHek1u_Qf7X-21" value="Member" style="shape=umlActor;verticalLabelPosition=bottom;verticalAlign=top;html=1;outlineConnect=0;" vertex="1" parent="1">
          <mxGeometry x="-350" y="-10" width="30" height="60" as="geometry" />
        </mxCell>
        <mxCell id="2v5rbHpj_oHek1u_Qf7X-22" value="" style="endArrow=none;dashed=1;html=1;rounded=0;" edge="1" parent="1">
          <mxGeometry width="50" height="50" relative="1" as="geometry">
            <mxPoint x="-340" y="1240" as="sourcePoint" />
            <mxPoint x="-335.5" y="65" as="targetPoint" />
          </mxGeometry>
        </mxCell>
        <mxCell id="2v5rbHpj_oHek1u_Qf7X-28" value="" style="edgeStyle=none;orthogonalLoop=1;jettySize=auto;html=1;rounded=0;" edge="1" parent="1">
          <mxGeometry width="100" relative="1" as="geometry">
            <mxPoint x="-220" y="460" as="sourcePoint" />
            <mxPoint x="-340" y="460" as="targetPoint" />
            <Array as="points" />
          </mxGeometry>
        </mxCell>
        <mxCell id="2v5rbHpj_oHek1u_Qf7X-29" value="Backlog" style="whiteSpace=wrap;html=1;" vertex="1" parent="1">
          <mxGeometry x="1490" y="-10" width="120" height="60" as="geometry" />
        </mxCell>
        <mxCell id="2v5rbHpj_oHek1u_Qf7X-30" value="StoryCard" style="whiteSpace=wrap;html=1;" vertex="1" parent="1">
          <mxGeometry x="1650" y="-10" width="120" height="60" as="geometry" />
        </mxCell>
        <mxCell id="2v5rbHpj_oHek1u_Qf7X-31" value="" style="endArrow=none;dashed=1;html=1;rounded=0;" edge="1" parent="1">
          <mxGeometry width="50" height="50" relative="1" as="geometry">
            <mxPoint x="1550" y="1240" as="sourcePoint" />
            <mxPoint x="1549.5" y="50" as="targetPoint" />
          </mxGeometry>
        </mxCell>
        <mxCell id="2v5rbHpj_oHek1u_Qf7X-32" value="" style="endArrow=none;dashed=1;html=1;rounded=0;" edge="1" parent="1">
          <mxGeometry width="50" height="50" relative="1" as="geometry">
            <mxPoint x="1710" y="1240" as="sourcePoint" />
            <mxPoint x="1709.5" y="50" as="targetPoint" />
          </mxGeometry>
        </mxCell>
        <mxCell id="2v5rbHpj_oHek1u_Qf7X-34" value="" style="whiteSpace=wrap;html=1;" vertex="1" parent="1">
          <mxGeometry x="1700" y="960" width="20" height="140" as="geometry" />
        </mxCell>
        <mxCell id="2v5rbHpj_oHek1u_Qf7X-35" value="" style="whiteSpace=wrap;html=1;" vertex="1" parent="1">
          <mxGeometry x="1540" y="820" width="20" height="90" as="geometry" />
        </mxCell>
        <mxCell id="2v5rbHpj_oHek1u_Qf7X-37" value="" style="endArrow=none;dashed=1;html=1;rounded=0;" edge="1" parent="1">
          <mxGeometry width="50" height="50" relative="1" as="geometry">
            <mxPoint x="-50" y="822" as="sourcePoint" />
            <mxPoint x="-50" y="775.5" as="targetPoint" />
          </mxGeometry>
        </mxCell>
        <mxCell id="cwFyzIeWrkFDfeEDFG0j-2" value="" style="rounded=0;whiteSpace=wrap;html=1;" vertex="1" parent="1">
          <mxGeometry x="-60" y="495.5" width="20" height="464.5" as="geometry" />
        </mxCell>
        <mxCell id="2v5rbHpj_oHek1u_Qf7X-38" value="" style="edgeStyle=none;orthogonalLoop=1;jettySize=auto;html=1;rounded=0;exitX=1.05;exitY=0.737;exitDx=0;exitDy=0;exitPerimeter=0;entryX=0;entryY=0.25;entryDx=0;entryDy=0;" edge="1" parent="1" source="cwFyzIeWrkFDfeEDFG0j-2" target="2v5rbHpj_oHek1u_Qf7X-35">
          <mxGeometry width="100" relative="1" as="geometry">
            <mxPoint x="-10" y="940" as="sourcePoint" />
            <mxPoint x="90" y="940" as="targetPoint" />
            <Array as="points" />
          </mxGeometry>
        </mxCell>
        <mxCell id="2v5rbHpj_oHek1u_Qf7X-39" value="assignBacklog" style="text;html=1;align=center;verticalAlign=middle;resizable=0;points=[];autosize=1;strokeColor=none;fillColor=none;" vertex="1" parent="1">
          <mxGeometry x="-15" y="814" width="100" height="30" as="geometry" />
        </mxCell>
        <mxCell id="2v5rbHpj_oHek1u_Qf7X-41" value="Backlog assigned" style="text;html=1;align=center;verticalAlign=middle;resizable=0;points=[];autosize=1;strokeColor=none;fillColor=none;" vertex="1" parent="1">
          <mxGeometry x="-15" y="880" width="120" height="30" as="geometry" />
        </mxCell>
        <mxCell id="2v5rbHpj_oHek1u_Qf7X-42" value="" style="edgeStyle=none;orthogonalLoop=1;jettySize=auto;html=1;rounded=0;entryX=0;entryY=0.129;entryDx=0;entryDy=0;entryPerimeter=0;" edge="1" parent="1" target="2v5rbHpj_oHek1u_Qf7X-34">
          <mxGeometry width="100" relative="1" as="geometry">
            <mxPoint x="-340" y="978" as="sourcePoint" />
            <mxPoint x="1530" y="980" as="targetPoint" />
            <Array as="points" />
          </mxGeometry>
        </mxCell>
        <mxCell id="2v5rbHpj_oHek1u_Qf7X-43" value="createStoryCard" style="text;html=1;align=center;verticalAlign=middle;resizable=0;points=[];autosize=1;strokeColor=none;fillColor=none;" vertex="1" parent="1">
          <mxGeometry x="-340" y="956" width="110" height="30" as="geometry" />
        </mxCell>
        <mxCell id="2v5rbHpj_oHek1u_Qf7X-44" value="" style="whiteSpace=wrap;html=1;" vertex="1" parent="1">
          <mxGeometry x="1540" y="1050" width="20" height="60" as="geometry" />
        </mxCell>
        <mxCell id="2v5rbHpj_oHek1u_Qf7X-45" value="ProductOwner" style="shape=umlActor;verticalLabelPosition=bottom;verticalAlign=top;html=1;outlineConnect=0;" vertex="1" parent="1">
          <mxGeometry x="-470" y="-10" width="30" height="60" as="geometry" />
        </mxCell>
        <mxCell id="2v5rbHpj_oHek1u_Qf7X-46" value="ScrumMaster" style="shape=umlActor;verticalLabelPosition=bottom;verticalAlign=top;html=1;outlineConnect=0;" vertex="1" parent="1">
          <mxGeometry x="-590" y="-10" width="30" height="60" as="geometry" />
        </mxCell>
        <mxCell id="2v5rbHpj_oHek1u_Qf7X-47" value="" style="endArrow=none;dashed=1;html=1;rounded=0;" edge="1" parent="1">
          <mxGeometry width="50" height="50" relative="1" as="geometry">
            <mxPoint x="-460" y="1240" as="sourcePoint" />
            <mxPoint x="-455.5" y="70" as="targetPoint" />
          </mxGeometry>
        </mxCell>
        <mxCell id="2v5rbHpj_oHek1u_Qf7X-48" value="" style="endArrow=none;dashed=1;html=1;rounded=0;" edge="1" parent="1">
          <mxGeometry width="50" height="50" relative="1" as="geometry">
            <mxPoint x="-580" y="1240" as="sourcePoint" />
            <mxPoint x="-575.5" y="68" as="targetPoint" />
          </mxGeometry>
        </mxCell>
        <mxCell id="2v5rbHpj_oHek1u_Qf7X-49" value="" style="edgeStyle=none;orthogonalLoop=1;jettySize=auto;html=1;rounded=0;entryX=-0.15;entryY=0.35;entryDx=0;entryDy=0;entryPerimeter=0;" edge="1" parent="1" target="2v5rbHpj_oHek1u_Qf7X-34">
          <mxGeometry width="100" relative="1" as="geometry">
            <mxPoint x="-460" y="1010" as="sourcePoint" />
            <mxPoint x="1610" y="1010" as="targetPoint" />
            <Array as="points" />
          </mxGeometry>
        </mxCell>
        <mxCell id="2v5rbHpj_oHek1u_Qf7X-51" value="validateOrReject" style="text;html=1;align=center;verticalAlign=middle;resizable=0;points=[];autosize=1;strokeColor=none;fillColor=none;" vertex="1" parent="1">
          <mxGeometry x="-460" y="986" width="110" height="30" as="geometry" />
        </mxCell>
        <mxCell id="2v5rbHpj_oHek1u_Qf7X-52" value="" style="edgeStyle=none;orthogonalLoop=1;jettySize=auto;html=1;rounded=0;exitX=0.1;exitY=0.707;exitDx=0;exitDy=0;exitPerimeter=0;entryX=1.15;entryY=0.15;entryDx=0;entryDy=0;entryPerimeter=0;" edge="1" parent="1" source="2v5rbHpj_oHek1u_Qf7X-34" target="2v5rbHpj_oHek1u_Qf7X-44">
          <mxGeometry width="100" relative="1" as="geometry">
            <mxPoint x="1570" y="1050" as="sourcePoint" />
            <mxPoint x="1570" y="1060" as="targetPoint" />
            <Array as="points" />
          </mxGeometry>
        </mxCell>
        <mxCell id="2v5rbHpj_oHek1u_Qf7X-53" value="StoryCard added" style="text;html=1;align=center;verticalAlign=middle;resizable=0;points=[];autosize=1;strokeColor=none;fillColor=none;" vertex="1" parent="1">
          <mxGeometry x="1580" y="1038" width="110" height="30" as="geometry" />
        </mxCell>
        <mxCell id="2v5rbHpj_oHek1u_Qf7X-54" value="" style="whiteSpace=wrap;html=1;" vertex="1" parent="1">
          <mxGeometry x="-60" y="1160" width="20" height="60" as="geometry" />
        </mxCell>
        <mxCell id="2v5rbHpj_oHek1u_Qf7X-55" value="" style="edgeStyle=none;orthogonalLoop=1;jettySize=auto;html=1;rounded=0;entryX=0;entryY=0.25;entryDx=0;entryDy=0;" edge="1" parent="1" target="2v5rbHpj_oHek1u_Qf7X-54">
          <mxGeometry width="100" relative="1" as="geometry">
            <mxPoint x="-580" y="1180" as="sourcePoint" />
            <mxPoint x="-380" y="1190" as="targetPoint" />
            <Array as="points" />
          </mxGeometry>
        </mxCell>
        <mxCell id="2v5rbHpj_oHek1u_Qf7X-56" value="accessProject" style="text;html=1;align=center;verticalAlign=middle;resizable=0;points=[];autosize=1;strokeColor=none;fillColor=none;" vertex="1" parent="1">
          <mxGeometry x="-570" y="1155" width="100" height="30" as="geometry" />
        </mxCell>
        <mxCell id="2v5rbHpj_oHek1u_Qf7X-57" value="reviewCards" style="text;html=1;align=center;verticalAlign=middle;resizable=0;points=[];autosize=1;strokeColor=none;fillColor=none;" vertex="1" parent="1">
          <mxGeometry x="-10" y="1168" width="90" height="30" as="geometry" />
        </mxCell>
        <mxCell id="2v5rbHpj_oHek1u_Qf7X-58" value="" style="whiteSpace=wrap;html=1;" vertex="1" parent="1">
          <mxGeometry x="1540" y="1160" width="20" height="60" as="geometry" />
        </mxCell>
        <mxCell id="2v5rbHpj_oHek1u_Qf7X-59" value="" style="edgeStyle=none;orthogonalLoop=1;jettySize=auto;html=1;rounded=0;exitX=1;exitY=0.5;exitDx=0;exitDy=0;entryX=0.05;entryY=0.4;entryDx=0;entryDy=0;entryPerimeter=0;" edge="1" parent="1" source="2v5rbHpj_oHek1u_Qf7X-54" target="2v5rbHpj_oHek1u_Qf7X-58">
          <mxGeometry width="100" relative="1" as="geometry">
            <mxPoint x="-40" y="1260" as="sourcePoint" />
            <mxPoint x="2130" y="1200" as="targetPoint" />
            <Array as="points" />
          </mxGeometry>
        </mxCell>
        <mxCell id="2v5rbHpj_oHek1u_Qf7X-60" value="" style="edgeStyle=none;orthogonalLoop=1;jettySize=auto;html=1;rounded=0;" edge="1" parent="1">
          <mxGeometry width="100" relative="1" as="geometry">
            <mxPoint x="-340" y="460" as="sourcePoint" />
            <mxPoint x="-460" y="460" as="targetPoint" />
            <Array as="points" />
          </mxGeometry>
        </mxCell>
        <mxCell id="2v5rbHpj_oHek1u_Qf7X-61" value="" style="edgeStyle=none;orthogonalLoop=1;jettySize=auto;html=1;rounded=0;" edge="1" parent="1">
          <mxGeometry width="100" relative="1" as="geometry">
            <mxPoint x="-460" y="460" as="sourcePoint" />
            <mxPoint x="-580" y="460" as="targetPoint" />
            <Array as="points" />
          </mxGeometry>
        </mxCell>
        <mxCell id="2v5rbHpj_oHek1u_Qf7X-62" value="" style="edgeStyle=none;orthogonalLoop=1;jettySize=auto;html=1;rounded=0;exitX=-0.05;exitY=0.974;exitDx=0;exitDy=0;exitPerimeter=0;" edge="1" parent="1" source="P4hTgr7oFE-vMmbrQz0E-39">
          <mxGeometry width="100" relative="1" as="geometry">
            <mxPoint x="90" y="170" as="sourcePoint" />
            <mxPoint x="-220" y="310" as="targetPoint" />
            <Array as="points" />
          </mxGeometry>
        </mxCell>
        <mxCell id="2v5rbHpj_oHek1u_Qf7X-63" value="UserRole created" style="text;html=1;align=center;verticalAlign=middle;resizable=0;points=[];autosize=1;strokeColor=none;fillColor=none;" vertex="1" parent="1">
          <mxGeometry x="-205" y="288" width="120" height="30" as="geometry" />
        </mxCell>
      </root>
    </mxGraphModel>
  </diagram>
</mxfile>
